<svg width="160" height="32" viewBox="0 0 160 32" fill="none" xmlns="http://www.w3.org/2000/svg">
<g clip-path="url(#clip0_6952_4024)">
<path d="M7.03714 25.4908H18.8502C19.5263 25.4908 20.0748 26.0403 20.0748 26.7176V31.9983H0V0H5.81254C6.48865 0 7.03714 0.54949 7.03714 1.22685V25.4908Z" fill="#0073CA"/>
<path d="M59.6553 0H69.4348C69.954 0 70.418 0.328311 70.5904 0.819051L77.6552 20.8806H77.7449L84.8544 0.817323C85.0286 0.328311 85.4909 0 86.0083 0H95.7447V31.9983H89.9322C89.2561 31.9983 88.7076 31.4488 88.7076 30.7714V7.45785H88.6179L80.5097 31.1706C80.3407 31.6665 79.875 32 79.3506 32H75.7441C75.2146 32 74.7454 31.6596 74.5799 31.1568L66.7821 7.45785H66.6924V30.7714C66.6924 31.4488 66.1439 31.9983 65.4678 31.9983H59.6553V0Z" fill="#0073CA"/>
<path d="M109.598 0C119.704 0 128.231 4.56526 128.231 16.0458C128.231 26.2148 120.021 32 110.455 32H99.9963C99.3202 32 98.7717 31.4505 98.7717 30.7732V1.22685C98.7717 0.54949 99.3202 0 99.9963 0H109.598ZM109.688 25.4908C115.959 25.4908 120.921 22.9144 120.921 15.7745C120.921 9.4018 115.868 6.50921 110.14 6.50921H105.809V25.4908H109.688Z" fill="#0073CA"/>
<path d="M32.9262 10.5595H37.6435C38.0937 10.5595 38.3955 10.0999 38.2179 9.68519L34.4561 0.891625C34.2784 0.478644 34.582 0.0190075 35.0304 0.0172796L42.7109 0C42.7247 0 42.7368 0.00863978 42.7437 0.0207355L56.6265 31.9499C56.6369 31.9724 56.6196 31.9983 56.5937 31.9983H48.1578C47.9215 31.9983 47.7076 31.8566 47.6145 31.6389L41.0741 16.3568C40.981 16.1391 40.7671 15.9974 40.5308 15.9974H39.1993L39.22 16.0147L32.5036 31.6319C32.4088 31.8531 32.1897 31.9948 31.9482 31.9896L23.295 31.9983L32.3846 10.9155C32.4778 10.6995 32.6899 10.5595 32.9262 10.5595Z" fill="#FF6600"/>
<path d="M145.301 0H141.089C140.601 0 140.158 0.290296 139.965 0.741293L126.48 32H133.405C133.909 32 134.361 31.6907 134.546 31.2224L136.902 25.2212L139.113 19.2546L142.485 10.6096L142.992 9.31022L146.917 19.2529L149.308 25.2195L151.749 31.2345C151.937 31.6976 152.385 32 152.884 32H160L146.426 0.737837C146.231 0.290296 145.789 0 145.301 0Z" fill="#0073CA"/>
<path d="M143.24 27.3224C144.781 27.3224 146.031 26.0707 146.031 24.5266C146.031 22.9825 144.781 21.7308 143.24 21.7308C141.699 21.7308 140.45 22.9825 140.45 24.5266C140.45 26.0707 141.699 27.3224 143.24 27.3224Z" fill="#FF6600"/>
</g>
<defs>
<clipPath id="clip0_6952_4024">
<rect width="160" height="32" fill="white"/>
</clipPath>
</defs>
</svg>
